<mxfile host="app.diagrams.net" modified="2023-08-09T21:19:25.258Z" agent="Mozilla/5.0 (Macintosh; Intel Mac OS X 10_15_7) AppleWebKit/537.36 (KHTML, like Gecko) Chrome/114.0.0.0 Safari/537.36" etag="JLhI-lspM8NdvHpRg3Tn" version="21.6.6" type="device">
  <diagram name="Page-1" id="_kGvwh7l0LLHCs0dxBXU">
    <mxGraphModel dx="14191" dy="10467" grid="1" gridSize="10" guides="1" tooltips="1" connect="1" arrows="1" fold="1" page="1" pageScale="1" pageWidth="827" pageHeight="1169" math="0" shadow="0">
      <root>
        <mxCell id="0" />
        <mxCell id="1" parent="0" />
        <mxCell id="R0nz26j8i6R1X5gJDK1r-1" value="" style="strokeWidth=1;shadow=0;dashed=0;align=center;html=1;shape=mxgraph.mockup.containers.browserWindow;rSize=0;strokeColor=#666666;strokeColor2=#008cff;strokeColor3=#c4c4c4;mainText=,;recursiveResize=0;" vertex="1" parent="1">
          <mxGeometry x="-10695" y="-7481" width="1360" height="850" as="geometry" />
        </mxCell>
        <mxCell id="R0nz26j8i6R1X5gJDK1r-2" value="Page 1" style="strokeWidth=1;shadow=0;dashed=0;align=center;html=1;shape=mxgraph.mockup.containers.anchor;fontSize=17;fontColor=#666666;align=left;whiteSpace=wrap;" vertex="1" parent="R0nz26j8i6R1X5gJDK1r-1">
          <mxGeometry x="60" y="12" width="110" height="26" as="geometry" />
        </mxCell>
        <mxCell id="R0nz26j8i6R1X5gJDK1r-3" value="https://www.draw.io" style="strokeWidth=1;shadow=0;dashed=0;align=center;html=1;shape=mxgraph.mockup.containers.anchor;rSize=0;fontSize=17;fontColor=#666666;align=left;" vertex="1" parent="R0nz26j8i6R1X5gJDK1r-1">
          <mxGeometry x="130" y="60" width="250" height="26" as="geometry" />
        </mxCell>
        <mxCell id="R0nz26j8i6R1X5gJDK1r-57" value="" style="rounded=0;whiteSpace=wrap;html=1;" vertex="1" parent="R0nz26j8i6R1X5gJDK1r-1">
          <mxGeometry y="110" width="1360" height="60" as="geometry" />
        </mxCell>
        <mxCell id="R0nz26j8i6R1X5gJDK1r-58" value="Welcome *User*!" style="text;html=1;strokeColor=none;fillColor=none;align=center;verticalAlign=middle;whiteSpace=wrap;rounded=0;" vertex="1" parent="R0nz26j8i6R1X5gJDK1r-1">
          <mxGeometry x="1088" y="125" width="140" height="30" as="geometry" />
        </mxCell>
        <mxCell id="R0nz26j8i6R1X5gJDK1r-59" value="&lt;font style=&quot;font-size: 17px;&quot;&gt;My Travel Diary&lt;/font&gt;" style="text;html=1;strokeColor=none;fillColor=none;align=center;verticalAlign=middle;whiteSpace=wrap;rounded=0;" vertex="1" parent="R0nz26j8i6R1X5gJDK1r-1">
          <mxGeometry x="10" y="125" width="140" height="30" as="geometry" />
        </mxCell>
        <mxCell id="R0nz26j8i6R1X5gJDK1r-60" value="" style="sketch=0;pointerEvents=1;shadow=0;dashed=0;html=1;strokeColor=none;fillColor=#505050;labelPosition=center;verticalLabelPosition=bottom;verticalAlign=top;outlineConnect=0;align=center;shape=mxgraph.office.concepts.home;" vertex="1" parent="R0nz26j8i6R1X5gJDK1r-1">
          <mxGeometry x="1222" y="124" width="30" height="25" as="geometry" />
        </mxCell>
        <mxCell id="R0nz26j8i6R1X5gJDK1r-61" value="" style="shape=image;html=1;verticalAlign=top;verticalLabelPosition=bottom;labelBackgroundColor=#ffffff;imageAspect=0;aspect=fixed;image=https://cdn1.iconfinder.com/data/icons/ui-essential-17/32/UI_Essential_Outline_1_essential-app-ui-question-help-128.png" vertex="1" parent="R0nz26j8i6R1X5gJDK1r-1">
          <mxGeometry x="1270" y="124" width="30" height="30" as="geometry" />
        </mxCell>
        <mxCell id="R0nz26j8i6R1X5gJDK1r-62" value="" style="rounded=0;whiteSpace=wrap;html=1;" vertex="1" parent="R0nz26j8i6R1X5gJDK1r-1">
          <mxGeometry x="320" y="270" width="730" height="370" as="geometry" />
        </mxCell>
        <mxCell id="R0nz26j8i6R1X5gJDK1r-63" value="" style="rounded=0;whiteSpace=wrap;html=1;" vertex="1" parent="R0nz26j8i6R1X5gJDK1r-1">
          <mxGeometry y="170" width="190" height="680" as="geometry" />
        </mxCell>
        <mxCell id="R0nz26j8i6R1X5gJDK1r-64" value="Add a Diary" style="shape=rectangle;strokeColor=none;fillColor=none;linkText=;fontSize=17;fontColor=#0000ff;fontStyle=4;html=1;align=center;" vertex="1" parent="R0nz26j8i6R1X5gJDK1r-1">
          <mxGeometry x="14" y="190" width="150" height="30" as="geometry" />
        </mxCell>
        <mxCell id="R0nz26j8i6R1X5gJDK1r-77" value="&lt;font style=&quot;font-size: 26px;&quot;&gt;Read the World....&lt;/font&gt;" style="text;html=1;strokeColor=none;fillColor=none;align=center;verticalAlign=middle;whiteSpace=wrap;rounded=0;" vertex="1" parent="R0nz26j8i6R1X5gJDK1r-1">
          <mxGeometry x="517.5" y="211" width="335" height="30" as="geometry" />
        </mxCell>
        <mxCell id="R0nz26j8i6R1X5gJDK1r-79" value="" style="verticalLabelPosition=top;html=1;shadow=0;dashed=0;verticalAlign=bottom;strokeWidth=1;shape=mxgraph.ios.iPin;fillColor2=#ccccff;fillColor3=#0000ff;strokeColor=#000066;" vertex="1" parent="R0nz26j8i6R1X5gJDK1r-1">
          <mxGeometry x="410" y="340" width="10" height="25" as="geometry" />
        </mxCell>
        <mxCell id="R0nz26j8i6R1X5gJDK1r-80" value="" style="verticalLabelPosition=top;html=1;shadow=0;dashed=0;verticalAlign=bottom;strokeWidth=1;shape=mxgraph.ios.iPin;fillColor2=#ccccff;fillColor3=#0000ff;strokeColor=#000066;" vertex="1" parent="R0nz26j8i6R1X5gJDK1r-1">
          <mxGeometry x="530" y="540" width="10" height="25" as="geometry" />
        </mxCell>
        <mxCell id="R0nz26j8i6R1X5gJDK1r-81" value="" style="verticalLabelPosition=top;html=1;shadow=0;dashed=0;verticalAlign=bottom;strokeWidth=1;shape=mxgraph.ios.iPin;fillColor2=#ccccff;fillColor3=#0000ff;strokeColor=#000066;" vertex="1" parent="R0nz26j8i6R1X5gJDK1r-1">
          <mxGeometry x="773" y="350" width="10" height="25" as="geometry" />
        </mxCell>
        <mxCell id="R0nz26j8i6R1X5gJDK1r-82" value="" style="verticalLabelPosition=top;html=1;shadow=0;dashed=0;verticalAlign=bottom;strokeWidth=1;shape=mxgraph.ios.iPin;fillColor2=#ccccff;fillColor3=#0000ff;strokeColor=#000066;" vertex="1" parent="R0nz26j8i6R1X5gJDK1r-1">
          <mxGeometry x="881" y="498" width="10" height="25" as="geometry" />
        </mxCell>
        <mxCell id="R0nz26j8i6R1X5gJDK1r-83" value="&amp;nbsp; &amp;nbsp;Submitted by: User&lt;br&gt;&lt;span style=&quot;white-space: pre;&quot;&gt;&#x9;&lt;/span&gt;&lt;br&gt;&lt;span style=&quot;white-space: pre;&quot;&gt;&#x9;&lt;/span&gt;" style="strokeWidth=1;shadow=0;dashed=0;align=left;html=1;shape=mxgraph.mockup.containers.rrect;rSize=0;strokeColor=#666666;fontColor=#666666;fontSize=17;verticalAlign=top;whiteSpace=wrap;fillColor=#ffffff;spacingTop=32;" vertex="1" parent="R0nz26j8i6R1X5gJDK1r-1">
          <mxGeometry x="910" y="510" width="250" height="230" as="geometry" />
        </mxCell>
        <mxCell id="R0nz26j8i6R1X5gJDK1r-84" value="Auckland" style="strokeWidth=1;shadow=0;dashed=0;align=center;html=1;shape=mxgraph.mockup.containers.rrect;rSize=0;fontSize=17;fontColor=#666666;strokeColor=#666666;align=left;spacingLeft=8;fillColor=#ffffff;resizeWidth=1;whiteSpace=wrap;" vertex="1" parent="R0nz26j8i6R1X5gJDK1r-83">
          <mxGeometry width="250" height="30" relative="1" as="geometry" />
        </mxCell>
        <mxCell id="R0nz26j8i6R1X5gJDK1r-85" value="" style="shape=ellipse;strokeColor=#008cff;resizable=0;fillColor=none;html=1;" vertex="1" parent="R0nz26j8i6R1X5gJDK1r-84">
          <mxGeometry x="1" y="0.5" width="20" height="20" relative="1" as="geometry">
            <mxPoint x="-25" y="-10" as="offset" />
          </mxGeometry>
        </mxCell>
        <mxCell id="R0nz26j8i6R1X5gJDK1r-86" value="Read More" style="strokeWidth=1;shadow=0;dashed=0;align=center;html=1;shape=mxgraph.mockup.containers.rrect;rSize=0;fontSize=16;fontColor=#666666;strokeColor=#c4c4c4;resizable=0;whiteSpace=wrap;fillColor=#ffffff;" vertex="1" parent="R0nz26j8i6R1X5gJDK1r-83">
          <mxGeometry x="0.5" y="1" width="120" height="25" relative="1" as="geometry">
            <mxPoint x="-60" y="-33" as="offset" />
          </mxGeometry>
        </mxCell>
        <mxCell id="R0nz26j8i6R1X5gJDK1r-87" value="&lt;h1&gt;&lt;font style=&quot;font-size: 17px;&quot;&gt;A beautiful day in Auckland&lt;/font&gt;&lt;/h1&gt;&lt;p&gt;Lorem ipsum dolor.....&lt;/p&gt;" style="text;html=1;strokeColor=none;fillColor=none;spacing=5;spacingTop=-20;whiteSpace=wrap;overflow=hidden;rounded=0;" vertex="1" parent="R0nz26j8i6R1X5gJDK1r-83">
          <mxGeometry x="11" y="78.6842105263158" width="229" height="145.26315789473685" as="geometry" />
        </mxCell>
        <mxCell id="R0nz26j8i6R1X5gJDK1r-76" value="View My Diaries" style="shape=rectangle;strokeColor=none;fillColor=none;linkText=;fontSize=17;fontColor=#0000ff;fontStyle=4;html=1;align=center;" vertex="1" parent="R0nz26j8i6R1X5gJDK1r-1">
          <mxGeometry x="14" y="231" width="150" height="30" as="geometry" />
        </mxCell>
        <mxCell id="R0nz26j8i6R1X5gJDK1r-7" value="" style="strokeWidth=1;shadow=0;dashed=0;align=center;html=1;shape=mxgraph.mockup.containers.browserWindow;rSize=0;strokeColor=#666666;strokeColor2=#008cff;strokeColor3=#c4c4c4;mainText=,;recursiveResize=0;" vertex="1" parent="1">
          <mxGeometry x="-10704" y="-8170" width="780" height="590" as="geometry" />
        </mxCell>
        <mxCell id="R0nz26j8i6R1X5gJDK1r-8" value="Page 1" style="strokeWidth=1;shadow=0;dashed=0;align=center;html=1;shape=mxgraph.mockup.containers.anchor;fontSize=17;fontColor=#666666;align=left;whiteSpace=wrap;" vertex="1" parent="R0nz26j8i6R1X5gJDK1r-7">
          <mxGeometry x="60" y="12" width="110" height="26" as="geometry" />
        </mxCell>
        <mxCell id="R0nz26j8i6R1X5gJDK1r-9" value="https://www.draw.io" style="strokeWidth=1;shadow=0;dashed=0;align=center;html=1;shape=mxgraph.mockup.containers.anchor;rSize=0;fontSize=17;fontColor=#666666;align=left;" vertex="1" parent="R0nz26j8i6R1X5gJDK1r-7">
          <mxGeometry x="130" y="60" width="250" height="26" as="geometry" />
        </mxCell>
        <mxCell id="R0nz26j8i6R1X5gJDK1r-10" value="" style="strokeWidth=1;shadow=0;dashed=0;align=center;html=1;shape=mxgraph.mockup.forms.rrect;rSize=0;strokeColor=#999999;fillColor=#ffffff;" vertex="1" parent="R0nz26j8i6R1X5gJDK1r-7">
          <mxGeometry x="223" y="190" width="415" height="300" as="geometry" />
        </mxCell>
        <mxCell id="R0nz26j8i6R1X5gJDK1r-11" value="Sign In" style="strokeWidth=1;shadow=0;dashed=0;align=center;html=1;shape=mxgraph.mockup.forms.anchor;fontSize=12;fontColor=#666666;align=left;resizeWidth=1;spacingLeft=0;" vertex="1" parent="R0nz26j8i6R1X5gJDK1r-10">
          <mxGeometry width="207.5" height="20" relative="1" as="geometry">
            <mxPoint x="10" y="10" as="offset" />
          </mxGeometry>
        </mxCell>
        <mxCell id="R0nz26j8i6R1X5gJDK1r-12" value="" style="shape=line;strokeColor=#ddeeff;strokeWidth=2;html=1;resizeWidth=1;" vertex="1" parent="R0nz26j8i6R1X5gJDK1r-10">
          <mxGeometry width="373.5" height="10" relative="1" as="geometry">
            <mxPoint x="10" y="30" as="offset" />
          </mxGeometry>
        </mxCell>
        <mxCell id="R0nz26j8i6R1X5gJDK1r-13" value="User Name:" style="strokeWidth=1;shadow=0;dashed=0;align=center;html=1;shape=mxgraph.mockup.forms.anchor;fontSize=12;fontColor=#666666;align=left;resizeWidth=1;spacingLeft=0;" vertex="1" parent="R0nz26j8i6R1X5gJDK1r-10">
          <mxGeometry width="207.5" height="20" relative="1" as="geometry">
            <mxPoint x="10" y="40" as="offset" />
          </mxGeometry>
        </mxCell>
        <mxCell id="R0nz26j8i6R1X5gJDK1r-14" value="&lt;font style=&quot;font-size: 11px;&quot;&gt;johndoe&lt;/font&gt;" style="strokeWidth=1;shadow=0;dashed=0;align=center;html=1;shape=mxgraph.mockup.forms.rrect;rSize=0;strokeColor=#999999;fontColor=#666666;align=left;spacingLeft=5;resizeWidth=1;" vertex="1" parent="R0nz26j8i6R1X5gJDK1r-10">
          <mxGeometry width="170" height="25" relative="1" as="geometry">
            <mxPoint x="10" y="60" as="offset" />
          </mxGeometry>
        </mxCell>
        <mxCell id="R0nz26j8i6R1X5gJDK1r-15" value="Password:" style="strokeWidth=1;shadow=0;dashed=0;align=center;html=1;shape=mxgraph.mockup.forms.anchor;fontSize=12;fontColor=#666666;align=left;resizeWidth=1;spacingLeft=0;" vertex="1" parent="R0nz26j8i6R1X5gJDK1r-10">
          <mxGeometry width="207.5" height="20" relative="1" as="geometry">
            <mxPoint x="10" y="95" as="offset" />
          </mxGeometry>
        </mxCell>
        <mxCell id="R0nz26j8i6R1X5gJDK1r-16" value="********" style="strokeWidth=1;shadow=0;dashed=0;align=center;html=1;shape=mxgraph.mockup.forms.rrect;rSize=0;strokeColor=#999999;fontColor=#666666;align=left;spacingLeft=5;resizeWidth=1;" vertex="1" parent="R0nz26j8i6R1X5gJDK1r-10">
          <mxGeometry width="170" height="25" relative="1" as="geometry">
            <mxPoint x="10" y="115" as="offset" />
          </mxGeometry>
        </mxCell>
        <mxCell id="R0nz26j8i6R1X5gJDK1r-17" value="SIGN IN" style="strokeWidth=1;shadow=0;dashed=0;align=center;html=1;shape=mxgraph.mockup.forms.rrect;rSize=5;strokeColor=none;fontColor=#ffffff;fillColor=#66bbff;fontSize=16;fontStyle=1;" vertex="1" parent="R0nz26j8i6R1X5gJDK1r-10">
          <mxGeometry y="1" width="80" height="30" relative="1" as="geometry">
            <mxPoint x="20" y="-150" as="offset" />
          </mxGeometry>
        </mxCell>
        <mxCell id="R0nz26j8i6R1X5gJDK1r-18" value="Forgot Password?" style="strokeWidth=1;shadow=0;dashed=0;align=center;html=1;shape=mxgraph.mockup.forms.anchor;fontSize=12;fontColor=#9999ff;align=left;spacingLeft=0;fontStyle=4;resizeWidth=1;" vertex="1" parent="R0nz26j8i6R1X5gJDK1r-10">
          <mxGeometry y="1" width="311.25" height="20" relative="1" as="geometry">
            <mxPoint x="10" y="-110" as="offset" />
          </mxGeometry>
        </mxCell>
        <mxCell id="R0nz26j8i6R1X5gJDK1r-19" value="" style="shape=line;strokeColor=#ddeeff;strokeWidth=2;html=1;resizeWidth=1;" vertex="1" parent="R0nz26j8i6R1X5gJDK1r-10">
          <mxGeometry y="1" width="373.5" height="10" relative="1" as="geometry">
            <mxPoint x="10" y="-90" as="offset" />
          </mxGeometry>
        </mxCell>
        <mxCell id="R0nz26j8i6R1X5gJDK1r-20" value="New User" style="strokeWidth=1;shadow=0;dashed=0;align=center;html=1;shape=mxgraph.mockup.forms.anchor;fontSize=12;fontColor=#666666;align=left;spacingLeft=0;resizeWidth=1;" vertex="1" parent="R0nz26j8i6R1X5gJDK1r-10">
          <mxGeometry y="1" width="311.25" height="20" relative="1" as="geometry">
            <mxPoint x="10" y="-70" as="offset" />
          </mxGeometry>
        </mxCell>
        <mxCell id="R0nz26j8i6R1X5gJDK1r-21" value="SIGN UP" style="strokeWidth=1;shadow=0;dashed=0;align=center;html=1;shape=mxgraph.mockup.forms.rrect;rSize=5;strokeColor=none;fontColor=#ffffff;fillColor=#66bbff;fontSize=16;fontStyle=1;" vertex="1" parent="R0nz26j8i6R1X5gJDK1r-10">
          <mxGeometry y="1" width="80" height="30" relative="1" as="geometry">
            <mxPoint x="20" y="-50" as="offset" />
          </mxGeometry>
        </mxCell>
        <mxCell id="R0nz26j8i6R1X5gJDK1r-51" value="" style="rounded=0;whiteSpace=wrap;html=1;strokeColor=#999999;" vertex="1" parent="R0nz26j8i6R1X5gJDK1r-10">
          <mxGeometry x="216.02" y="60" width="153.98" height="140" as="geometry" />
        </mxCell>
        <mxCell id="R0nz26j8i6R1X5gJDK1r-50" value="&lt;font style=&quot;font-size: 14px;&quot; color=&quot;#ff0000&quot;&gt;G&lt;/font&gt;" style="text;html=1;strokeColor=none;fillColor=none;align=center;verticalAlign=middle;whiteSpace=wrap;rounded=0;" vertex="1" parent="R0nz26j8i6R1X5gJDK1r-10">
          <mxGeometry x="193.48129032258063" y="126.00391304347795" width="88.35483870967741" height="30.815217391304348" as="geometry" />
        </mxCell>
        <mxCell id="R0nz26j8i6R1X5gJDK1r-52" value="&lt;font style=&quot;font-size: 10px;&quot;&gt;Log in with Facebook&lt;/font&gt;" style="text;html=1;strokeColor=none;fillColor=none;align=center;verticalAlign=middle;whiteSpace=wrap;rounded=0;" vertex="1" parent="R0nz26j8i6R1X5gJDK1r-10">
          <mxGeometry x="255" y="90" width="102.34" height="27.8" as="geometry" />
        </mxCell>
        <mxCell id="R0nz26j8i6R1X5gJDK1r-54" value="&lt;font style=&quot;font-size: 10px;&quot;&gt;Log in with Google&lt;/font&gt;" style="text;html=1;strokeColor=none;fillColor=none;align=center;verticalAlign=middle;whiteSpace=wrap;rounded=0;" vertex="1" parent="R0nz26j8i6R1X5gJDK1r-10">
          <mxGeometry x="255" y="126" width="92" height="30" as="geometry" />
        </mxCell>
        <mxCell id="R0nz26j8i6R1X5gJDK1r-55" value="" style="shape=image;html=1;verticalAlign=top;verticalLabelPosition=bottom;labelBackgroundColor=#ffffff;imageAspect=0;aspect=fixed;image=https://cdn1.iconfinder.com/data/icons/social-media-2285/512/Colored_Facebook3_svg-128.png" vertex="1" parent="R0nz26j8i6R1X5gJDK1r-10">
          <mxGeometry x="227.65999999999985" y="93.89695652173941" width="20" height="20" as="geometry" />
        </mxCell>
        <mxCell id="R0nz26j8i6R1X5gJDK1r-36" value="&lt;font style=&quot;font-size: 18px;&quot;&gt;My Travel Diary&lt;/font&gt;" style="text;html=1;strokeColor=none;fillColor=none;align=center;verticalAlign=middle;whiteSpace=wrap;rounded=0;" vertex="1" parent="R0nz26j8i6R1X5gJDK1r-7">
          <mxGeometry x="305" y="141" width="170" height="30" as="geometry" />
        </mxCell>
        <mxCell id="R0nz26j8i6R1X5gJDK1r-41" value="" style="rounded=1;whiteSpace=wrap;html=1;fillColor=#f5f5f5;fontColor=#333333;strokeColor=#666666;" vertex="1" parent="1">
          <mxGeometry x="-9466" y="-7664" width="170" height="40" as="geometry" />
        </mxCell>
        <mxCell id="R0nz26j8i6R1X5gJDK1r-4" value="" style="strokeWidth=1;shadow=0;dashed=0;align=center;html=1;shape=mxgraph.mockup.containers.browserWindow;rSize=0;strokeColor=#666666;strokeColor2=#008cff;strokeColor3=#c4c4c4;mainText=,;recursiveResize=0;" vertex="1" parent="1">
          <mxGeometry x="-9850" y="-8174" width="840" height="600" as="geometry" />
        </mxCell>
        <mxCell id="R0nz26j8i6R1X5gJDK1r-5" value="Page 1" style="strokeWidth=1;shadow=0;dashed=0;align=center;html=1;shape=mxgraph.mockup.containers.anchor;fontSize=17;fontColor=#666666;align=left;whiteSpace=wrap;" vertex="1" parent="R0nz26j8i6R1X5gJDK1r-4">
          <mxGeometry x="60" y="12" width="110" height="26" as="geometry" />
        </mxCell>
        <mxCell id="R0nz26j8i6R1X5gJDK1r-6" value="https://www.draw.io" style="strokeWidth=1;shadow=0;dashed=0;align=center;html=1;shape=mxgraph.mockup.containers.anchor;rSize=0;fontSize=17;fontColor=#666666;align=left;" vertex="1" parent="R0nz26j8i6R1X5gJDK1r-4">
          <mxGeometry x="130" y="60" width="250" height="26" as="geometry" />
        </mxCell>
        <mxCell id="R0nz26j8i6R1X5gJDK1r-22" value="" style="strokeWidth=1;shadow=0;dashed=0;align=center;html=1;shape=mxgraph.mockup.forms.rrect;rSize=0;strokeColor=#999999;fillColor=#ffffff;" vertex="1" parent="R0nz26j8i6R1X5gJDK1r-4">
          <mxGeometry x="360" y="180" width="220" height="378" as="geometry" />
        </mxCell>
        <mxCell id="R0nz26j8i6R1X5gJDK1r-23" value="Sign Up" style="strokeWidth=1;shadow=0;dashed=0;align=center;html=1;shape=mxgraph.mockup.forms.anchor;fontSize=12;fontColor=#666666;align=left;resizeWidth=1;spacingLeft=0;" vertex="1" parent="R0nz26j8i6R1X5gJDK1r-22">
          <mxGeometry width="110" height="20" relative="1" as="geometry">
            <mxPoint x="10" y="10" as="offset" />
          </mxGeometry>
        </mxCell>
        <mxCell id="R0nz26j8i6R1X5gJDK1r-24" value="" style="shape=line;strokeColor=#ddeeff;strokeWidth=2;html=1;resizeWidth=1;" vertex="1" parent="R0nz26j8i6R1X5gJDK1r-22">
          <mxGeometry width="198" height="10" relative="1" as="geometry">
            <mxPoint x="10" y="30" as="offset" />
          </mxGeometry>
        </mxCell>
        <mxCell id="R0nz26j8i6R1X5gJDK1r-25" value="User Name:" style="strokeWidth=1;shadow=0;dashed=0;align=center;html=1;shape=mxgraph.mockup.forms.anchor;fontSize=12;fontColor=#666666;align=left;resizeWidth=1;spacingLeft=0;" vertex="1" parent="R0nz26j8i6R1X5gJDK1r-22">
          <mxGeometry width="110" height="20" relative="1" as="geometry">
            <mxPoint x="10" y="40" as="offset" />
          </mxGeometry>
        </mxCell>
        <mxCell id="R0nz26j8i6R1X5gJDK1r-26" value="johndoe" style="strokeWidth=1;shadow=0;dashed=0;align=center;html=1;shape=mxgraph.mockup.forms.rrect;rSize=0;strokeColor=#999999;fontColor=#666666;align=left;spacingLeft=5;resizeWidth=1;" vertex="1" parent="R0nz26j8i6R1X5gJDK1r-22">
          <mxGeometry width="165" height="25" relative="1" as="geometry">
            <mxPoint x="10" y="60" as="offset" />
          </mxGeometry>
        </mxCell>
        <mxCell id="R0nz26j8i6R1X5gJDK1r-27" value="Password:" style="strokeWidth=1;shadow=0;dashed=0;align=center;html=1;shape=mxgraph.mockup.forms.anchor;fontSize=12;fontColor=#666666;align=left;resizeWidth=1;spacingLeft=0;" vertex="1" parent="R0nz26j8i6R1X5gJDK1r-22">
          <mxGeometry width="110" height="20" relative="1" as="geometry">
            <mxPoint x="10" y="95" as="offset" />
          </mxGeometry>
        </mxCell>
        <mxCell id="R0nz26j8i6R1X5gJDK1r-28" value="********" style="strokeWidth=1;shadow=0;dashed=0;align=center;html=1;shape=mxgraph.mockup.forms.rrect;rSize=0;strokeColor=#999999;fontColor=#666666;align=left;spacingLeft=5;resizeWidth=1;" vertex="1" parent="R0nz26j8i6R1X5gJDK1r-22">
          <mxGeometry width="165" height="25" relative="1" as="geometry">
            <mxPoint x="10" y="115" as="offset" />
          </mxGeometry>
        </mxCell>
        <mxCell id="R0nz26j8i6R1X5gJDK1r-33" value="SIGN UP" style="strokeWidth=1;shadow=0;dashed=0;align=center;html=1;shape=mxgraph.mockup.forms.rrect;rSize=5;strokeColor=none;fontColor=#ffffff;fillColor=#66bbff;fontSize=16;fontStyle=1;" vertex="1" parent="R0nz26j8i6R1X5gJDK1r-22">
          <mxGeometry y="1" width="80" height="30" relative="1" as="geometry">
            <mxPoint x="64" y="-166" as="offset" />
          </mxGeometry>
        </mxCell>
        <mxCell id="R0nz26j8i6R1X5gJDK1r-35" value="********" style="strokeWidth=1;shadow=0;dashed=0;align=center;html=1;shape=mxgraph.mockup.forms.pwField;strokeColor=#999999;mainText=;align=left;fontColor=#666666;fontSize=17;spacingLeft=3;" vertex="1" parent="R0nz26j8i6R1X5gJDK1r-22">
          <mxGeometry x="11" y="171.62" width="159" height="25.38" as="geometry" />
        </mxCell>
        <mxCell id="R0nz26j8i6R1X5gJDK1r-38" value="" style="shape=image;html=1;verticalAlign=top;verticalLabelPosition=bottom;labelBackgroundColor=#ffffff;imageAspect=0;aspect=fixed;image=https://cdn1.iconfinder.com/data/icons/social-media-2285/512/Colored_Facebook3_svg-128.png" vertex="1" parent="R0nz26j8i6R1X5gJDK1r-22">
          <mxGeometry x="33" y="277.3369565217391" width="20" height="20" as="geometry" />
        </mxCell>
        <mxCell id="R0nz26j8i6R1X5gJDK1r-40" value="Sign up with Facebook" style="text;html=1;strokeColor=none;fillColor=none;align=center;verticalAlign=middle;whiteSpace=wrap;rounded=0;" vertex="1" parent="R0nz26j8i6R1X5gJDK1r-22">
          <mxGeometry x="60" y="272.2" width="138" height="27.8" as="geometry" />
        </mxCell>
        <mxCell id="R0nz26j8i6R1X5gJDK1r-44" value="&lt;font style=&quot;font-size: 14px;&quot; color=&quot;#ff0000&quot;&gt;G&lt;/font&gt;" style="text;html=1;strokeColor=none;fillColor=none;align=center;verticalAlign=middle;whiteSpace=wrap;rounded=0;" vertex="1" parent="R0nz26j8i6R1X5gJDK1r-22">
          <mxGeometry x="11" y="309.42391304347825" width="66" height="30.815217391304348" as="geometry" />
        </mxCell>
        <mxCell id="R0nz26j8i6R1X5gJDK1r-37" value="&lt;font style=&quot;font-size: 18px;&quot;&gt;My Travel Diary&lt;/font&gt;" style="text;html=1;strokeColor=none;fillColor=none;align=center;verticalAlign=middle;whiteSpace=wrap;rounded=0;" vertex="1" parent="R0nz26j8i6R1X5gJDK1r-4">
          <mxGeometry x="380" y="140" width="170" height="30" as="geometry" />
        </mxCell>
        <mxCell id="R0nz26j8i6R1X5gJDK1r-34" value="Confirm Password:" style="strokeWidth=1;shadow=0;dashed=0;align=center;html=1;shape=mxgraph.mockup.forms.anchor;fontSize=12;fontColor=#666666;align=left;resizeWidth=1;spacingLeft=0;" vertex="1" parent="1">
          <mxGeometry x="-9478" y="-7828" width="100" height="20" as="geometry" />
        </mxCell>
        <mxCell id="R0nz26j8i6R1X5gJDK1r-42" value="Sign up with Google" style="text;html=1;strokeColor=none;fillColor=none;align=center;verticalAlign=middle;whiteSpace=wrap;rounded=0;" vertex="1" parent="1">
          <mxGeometry x="-9430" y="-7671" width="130" height="30" as="geometry" />
        </mxCell>
        <mxCell id="R0nz26j8i6R1X5gJDK1r-48" value="" style="shape=line;strokeColor=#ddeeff;strokeWidth=2;html=1;resizeWidth=1;" vertex="1" parent="1">
          <mxGeometry x="-9478" y="-7730" width="198" height="10" as="geometry" />
        </mxCell>
        <mxCell id="R0nz26j8i6R1X5gJDK1r-49" value="" style="shape=line;strokeColor=#ddeeff;strokeWidth=2;html=1;resizeWidth=1;rotation=90;" vertex="1" parent="1">
          <mxGeometry x="-10353" y="-7865" width="137" height="10" as="geometry" />
        </mxCell>
        <mxCell id="R0nz26j8i6R1X5gJDK1r-88" value="" style="strokeWidth=1;shadow=0;dashed=0;align=center;html=1;shape=mxgraph.mockup.containers.browserWindow;rSize=0;strokeColor=#666666;strokeColor2=#008cff;strokeColor3=#c4c4c4;mainText=,;recursiveResize=0;" vertex="1" parent="1">
          <mxGeometry x="-9190" y="-7490" width="1360" height="850" as="geometry" />
        </mxCell>
        <mxCell id="R0nz26j8i6R1X5gJDK1r-89" value="Page 1" style="strokeWidth=1;shadow=0;dashed=0;align=center;html=1;shape=mxgraph.mockup.containers.anchor;fontSize=17;fontColor=#666666;align=left;whiteSpace=wrap;" vertex="1" parent="R0nz26j8i6R1X5gJDK1r-88">
          <mxGeometry x="60" y="12" width="110" height="26" as="geometry" />
        </mxCell>
        <mxCell id="R0nz26j8i6R1X5gJDK1r-90" value="https://www.draw.io" style="strokeWidth=1;shadow=0;dashed=0;align=center;html=1;shape=mxgraph.mockup.containers.anchor;rSize=0;fontSize=17;fontColor=#666666;align=left;" vertex="1" parent="R0nz26j8i6R1X5gJDK1r-88">
          <mxGeometry x="130" y="60" width="250" height="26" as="geometry" />
        </mxCell>
        <mxCell id="R0nz26j8i6R1X5gJDK1r-91" value="" style="rounded=0;whiteSpace=wrap;html=1;" vertex="1" parent="R0nz26j8i6R1X5gJDK1r-88">
          <mxGeometry y="110" width="1360" height="60" as="geometry" />
        </mxCell>
        <mxCell id="R0nz26j8i6R1X5gJDK1r-92" value="Welcome *User*!" style="text;html=1;strokeColor=none;fillColor=none;align=center;verticalAlign=middle;whiteSpace=wrap;rounded=0;" vertex="1" parent="R0nz26j8i6R1X5gJDK1r-88">
          <mxGeometry x="1088" y="125" width="140" height="30" as="geometry" />
        </mxCell>
        <mxCell id="R0nz26j8i6R1X5gJDK1r-93" value="&lt;font style=&quot;font-size: 17px;&quot;&gt;My Travel Diary&lt;/font&gt;" style="text;html=1;strokeColor=none;fillColor=none;align=center;verticalAlign=middle;whiteSpace=wrap;rounded=0;" vertex="1" parent="R0nz26j8i6R1X5gJDK1r-88">
          <mxGeometry x="10" y="125" width="140" height="30" as="geometry" />
        </mxCell>
        <mxCell id="R0nz26j8i6R1X5gJDK1r-94" value="" style="sketch=0;pointerEvents=1;shadow=0;dashed=0;html=1;strokeColor=none;fillColor=#505050;labelPosition=center;verticalLabelPosition=bottom;verticalAlign=top;outlineConnect=0;align=center;shape=mxgraph.office.concepts.home;" vertex="1" parent="R0nz26j8i6R1X5gJDK1r-88">
          <mxGeometry x="1222" y="124" width="30" height="25" as="geometry" />
        </mxCell>
        <mxCell id="R0nz26j8i6R1X5gJDK1r-95" value="" style="shape=image;html=1;verticalAlign=top;verticalLabelPosition=bottom;labelBackgroundColor=#ffffff;imageAspect=0;aspect=fixed;image=https://cdn1.iconfinder.com/data/icons/ui-essential-17/32/UI_Essential_Outline_1_essential-app-ui-question-help-128.png" vertex="1" parent="R0nz26j8i6R1X5gJDK1r-88">
          <mxGeometry x="1270" y="124" width="30" height="30" as="geometry" />
        </mxCell>
        <mxCell id="R0nz26j8i6R1X5gJDK1r-96" value="" style="rounded=0;whiteSpace=wrap;html=1;" vertex="1" parent="R0nz26j8i6R1X5gJDK1r-88">
          <mxGeometry x="288" y="270" width="730" height="370" as="geometry" />
        </mxCell>
        <mxCell id="R0nz26j8i6R1X5gJDK1r-97" value="" style="rounded=0;whiteSpace=wrap;html=1;" vertex="1" parent="R0nz26j8i6R1X5gJDK1r-88">
          <mxGeometry y="170" width="190" height="680" as="geometry" />
        </mxCell>
        <mxCell id="R0nz26j8i6R1X5gJDK1r-98" value="Add a Diary" style="shape=rectangle;strokeColor=none;fillColor=none;linkText=;fontSize=17;fontColor=#0000ff;fontStyle=4;html=1;align=center;" vertex="1" parent="R0nz26j8i6R1X5gJDK1r-88">
          <mxGeometry x="14" y="190" width="150" height="30" as="geometry" />
        </mxCell>
        <mxCell id="R0nz26j8i6R1X5gJDK1r-99" value="&lt;font style=&quot;font-size: 26px;&quot;&gt;Read the World....&lt;/font&gt;" style="text;html=1;strokeColor=none;fillColor=none;align=center;verticalAlign=middle;whiteSpace=wrap;rounded=0;" vertex="1" parent="R0nz26j8i6R1X5gJDK1r-88">
          <mxGeometry x="499.5" y="211" width="335" height="30" as="geometry" />
        </mxCell>
        <mxCell id="R0nz26j8i6R1X5gJDK1r-100" value="" style="verticalLabelPosition=top;html=1;shadow=0;dashed=0;verticalAlign=bottom;strokeWidth=1;shape=mxgraph.ios.iPin;fillColor2=#ccccff;fillColor3=#0000ff;strokeColor=#000066;" vertex="1" parent="R0nz26j8i6R1X5gJDK1r-88">
          <mxGeometry x="410" y="340" width="10" height="25" as="geometry" />
        </mxCell>
        <mxCell id="R0nz26j8i6R1X5gJDK1r-101" value="" style="verticalLabelPosition=top;html=1;shadow=0;dashed=0;verticalAlign=bottom;strokeWidth=1;shape=mxgraph.ios.iPin;fillColor2=#ccccff;fillColor3=#0000ff;strokeColor=#000066;" vertex="1" parent="R0nz26j8i6R1X5gJDK1r-88">
          <mxGeometry x="530" y="540" width="10" height="25" as="geometry" />
        </mxCell>
        <mxCell id="R0nz26j8i6R1X5gJDK1r-102" value="" style="verticalLabelPosition=top;html=1;shadow=0;dashed=0;verticalAlign=bottom;strokeWidth=1;shape=mxgraph.ios.iPin;fillColor2=#ccccff;fillColor3=#0000ff;strokeColor=#000066;" vertex="1" parent="R0nz26j8i6R1X5gJDK1r-88">
          <mxGeometry x="773" y="350" width="10" height="25" as="geometry" />
        </mxCell>
        <mxCell id="R0nz26j8i6R1X5gJDK1r-103" value="" style="verticalLabelPosition=top;html=1;shadow=0;dashed=0;verticalAlign=bottom;strokeWidth=1;shape=mxgraph.ios.iPin;fillColor2=#ccccff;fillColor3=#0000ff;strokeColor=#000066;" vertex="1" parent="R0nz26j8i6R1X5gJDK1r-88">
          <mxGeometry x="881" y="498" width="10" height="25" as="geometry" />
        </mxCell>
        <mxCell id="R0nz26j8i6R1X5gJDK1r-104" value="&amp;nbsp; &amp;nbsp;Submitted by: User&lt;br style=&quot;border-color: var(--border-color);&quot;&gt;&lt;span style=&quot;&quot;&gt;&lt;span style=&quot;white-space: pre;&quot;&gt;&amp;nbsp;&amp;nbsp;&amp;nbsp;&amp;nbsp;&lt;/span&gt;&lt;/span&gt;&lt;br&gt;&lt;span style=&quot;&quot;&gt;&lt;span style=&quot;white-space: pre;&quot;&gt;&amp;nbsp;&amp;nbsp;&amp;nbsp;&amp;nbsp;&lt;/span&gt;&lt;/span&gt;" style="strokeWidth=1;shadow=0;dashed=0;align=left;html=1;shape=mxgraph.mockup.containers.rrect;rSize=0;strokeColor=#666666;fontColor=#666666;fontSize=17;verticalAlign=top;whiteSpace=wrap;fillColor=#ffffff;spacingTop=32;" vertex="1" parent="R0nz26j8i6R1X5gJDK1r-88">
          <mxGeometry x="710" y="540" width="250" height="230" as="geometry" />
        </mxCell>
        <mxCell id="R0nz26j8i6R1X5gJDK1r-105" value="Auckland" style="strokeWidth=1;shadow=0;dashed=0;align=center;html=1;shape=mxgraph.mockup.containers.rrect;rSize=0;fontSize=17;fontColor=#666666;strokeColor=#666666;align=left;spacingLeft=8;fillColor=#ffffff;resizeWidth=1;whiteSpace=wrap;" vertex="1" parent="R0nz26j8i6R1X5gJDK1r-104">
          <mxGeometry width="250" height="30" relative="1" as="geometry" />
        </mxCell>
        <mxCell id="R0nz26j8i6R1X5gJDK1r-106" value="" style="shape=ellipse;strokeColor=#008cff;resizable=0;fillColor=none;html=1;" vertex="1" parent="R0nz26j8i6R1X5gJDK1r-105">
          <mxGeometry x="1" y="0.5" width="20" height="20" relative="1" as="geometry">
            <mxPoint x="-25" y="-10" as="offset" />
          </mxGeometry>
        </mxCell>
        <mxCell id="R0nz26j8i6R1X5gJDK1r-107" value="Read More" style="strokeWidth=1;shadow=0;dashed=0;align=center;html=1;shape=mxgraph.mockup.containers.rrect;rSize=0;fontSize=16;fontColor=#666666;strokeColor=#c4c4c4;resizable=0;whiteSpace=wrap;fillColor=#ffffff;" vertex="1" parent="R0nz26j8i6R1X5gJDK1r-104">
          <mxGeometry x="0.5" y="1" width="120" height="25" relative="1" as="geometry">
            <mxPoint x="-60" y="-33" as="offset" />
          </mxGeometry>
        </mxCell>
        <mxCell id="R0nz26j8i6R1X5gJDK1r-108" value="&lt;h1&gt;&lt;font style=&quot;font-size: 17px;&quot;&gt;A beautiful day in Auckland&lt;/font&gt;&lt;/h1&gt;&lt;p&gt;Lorem ipsum dolor.....&lt;/p&gt;" style="text;html=1;strokeColor=none;fillColor=none;spacing=5;spacingTop=-20;whiteSpace=wrap;overflow=hidden;rounded=0;" vertex="1" parent="R0nz26j8i6R1X5gJDK1r-104">
          <mxGeometry x="11" y="78.6842105263158" width="229" height="145.26315789473685" as="geometry" />
        </mxCell>
        <mxCell id="R0nz26j8i6R1X5gJDK1r-109" value="View My Diaries" style="shape=rectangle;strokeColor=none;fillColor=none;linkText=;fontSize=17;fontColor=#0000ff;fontStyle=4;html=1;align=center;" vertex="1" parent="R0nz26j8i6R1X5gJDK1r-88">
          <mxGeometry x="14" y="231" width="150" height="30" as="geometry" />
        </mxCell>
        <mxCell id="R0nz26j8i6R1X5gJDK1r-110" value="Read more..." style="strokeWidth=1;shadow=0;dashed=0;align=center;html=1;shape=mxgraph.mockup.containers.window;align=left;verticalAlign=top;spacingLeft=8;strokeColor2=#008cff;strokeColor3=#c4c4c4;fontColor=#666666;mainText=;fontSize=17;labelBackgroundColor=none;whiteSpace=wrap;" vertex="1" parent="R0nz26j8i6R1X5gJDK1r-88">
          <mxGeometry x="1080" y="169" width="280" height="681" as="geometry" />
        </mxCell>
        <mxCell id="R0nz26j8i6R1X5gJDK1r-111" value="&lt;h1&gt;&lt;font style=&quot;font-size: 17px;&quot;&gt;A beautiful day in Auckland&lt;/font&gt;&lt;/h1&gt;&lt;p&gt;Lorem ipsum dolor sit amet, consectetur adipisicing elit, sed do eiusmod tempor incididunt ut labore et dolore magna aliqua.&lt;br&gt;&lt;/p&gt;&lt;p&gt;Lorem ipsum dolor sit amet, consectetur adipisicing elit, sed do eiusmod tempor incididunt ut labore et dolore magna aliqua.&lt;br&gt;&lt;/p&gt;&lt;p&gt;&lt;br&gt;&lt;/p&gt;" style="text;html=1;strokeColor=none;fillColor=none;spacing=5;spacingTop=-20;whiteSpace=wrap;overflow=hidden;rounded=0;" vertex="1" parent="R0nz26j8i6R1X5gJDK1r-88">
          <mxGeometry x="1105" y="241" width="229" height="259" as="geometry" />
        </mxCell>
        <mxCell id="R0nz26j8i6R1X5gJDK1r-113" value="" style="strokeWidth=1;shadow=0;dashed=0;align=center;html=1;shape=mxgraph.mockup.containers.browserWindow;rSize=0;strokeColor=#666666;strokeColor2=#008cff;strokeColor3=#c4c4c4;mainText=,;recursiveResize=0;" vertex="1" parent="1">
          <mxGeometry x="-10704" y="-6480" width="1360" height="1030" as="geometry" />
        </mxCell>
        <mxCell id="R0nz26j8i6R1X5gJDK1r-114" value="Page 1" style="strokeWidth=1;shadow=0;dashed=0;align=center;html=1;shape=mxgraph.mockup.containers.anchor;fontSize=17;fontColor=#666666;align=left;whiteSpace=wrap;" vertex="1" parent="R0nz26j8i6R1X5gJDK1r-113">
          <mxGeometry x="60" y="12" width="110" height="26" as="geometry" />
        </mxCell>
        <mxCell id="R0nz26j8i6R1X5gJDK1r-115" value="https://www.draw.io" style="strokeWidth=1;shadow=0;dashed=0;align=center;html=1;shape=mxgraph.mockup.containers.anchor;rSize=0;fontSize=17;fontColor=#666666;align=left;" vertex="1" parent="R0nz26j8i6R1X5gJDK1r-113">
          <mxGeometry x="130" y="60" width="250" height="26" as="geometry" />
        </mxCell>
        <mxCell id="R0nz26j8i6R1X5gJDK1r-116" value="" style="rounded=0;whiteSpace=wrap;html=1;" vertex="1" parent="R0nz26j8i6R1X5gJDK1r-113">
          <mxGeometry y="110" width="1360" height="60" as="geometry" />
        </mxCell>
        <mxCell id="R0nz26j8i6R1X5gJDK1r-117" value="Welcome *User*!" style="text;html=1;strokeColor=none;fillColor=none;align=center;verticalAlign=middle;whiteSpace=wrap;rounded=0;" vertex="1" parent="R0nz26j8i6R1X5gJDK1r-113">
          <mxGeometry x="1088" y="125" width="140" height="30" as="geometry" />
        </mxCell>
        <mxCell id="R0nz26j8i6R1X5gJDK1r-118" value="&lt;font style=&quot;font-size: 17px;&quot;&gt;My Travel Diary&lt;/font&gt;" style="text;html=1;strokeColor=none;fillColor=none;align=center;verticalAlign=middle;whiteSpace=wrap;rounded=0;" vertex="1" parent="R0nz26j8i6R1X5gJDK1r-113">
          <mxGeometry x="10" y="125" width="140" height="30" as="geometry" />
        </mxCell>
        <mxCell id="R0nz26j8i6R1X5gJDK1r-119" value="" style="sketch=0;pointerEvents=1;shadow=0;dashed=0;html=1;strokeColor=none;fillColor=#505050;labelPosition=center;verticalLabelPosition=bottom;verticalAlign=top;outlineConnect=0;align=center;shape=mxgraph.office.concepts.home;" vertex="1" parent="R0nz26j8i6R1X5gJDK1r-113">
          <mxGeometry x="1222" y="124" width="30" height="25" as="geometry" />
        </mxCell>
        <mxCell id="R0nz26j8i6R1X5gJDK1r-120" value="" style="shape=image;html=1;verticalAlign=top;verticalLabelPosition=bottom;labelBackgroundColor=#ffffff;imageAspect=0;aspect=fixed;image=https://cdn1.iconfinder.com/data/icons/ui-essential-17/32/UI_Essential_Outline_1_essential-app-ui-question-help-128.png" vertex="1" parent="R0nz26j8i6R1X5gJDK1r-113">
          <mxGeometry x="1270" y="124" width="30" height="30" as="geometry" />
        </mxCell>
        <mxCell id="R0nz26j8i6R1X5gJDK1r-121" value="" style="rounded=0;whiteSpace=wrap;html=1;" vertex="1" parent="R0nz26j8i6R1X5gJDK1r-113">
          <mxGeometry x="502" y="342" width="365" height="179" as="geometry" />
        </mxCell>
        <mxCell id="R0nz26j8i6R1X5gJDK1r-124" value="&lt;font style=&quot;font-size: 26px;&quot;&gt;Add a Diary&lt;/font&gt;" style="text;html=1;strokeColor=none;fillColor=none;align=center;verticalAlign=middle;whiteSpace=wrap;rounded=0;" vertex="1" parent="R0nz26j8i6R1X5gJDK1r-113">
          <mxGeometry x="517.5" y="211" width="335" height="30" as="geometry" />
        </mxCell>
        <mxCell id="R0nz26j8i6R1X5gJDK1r-157" value="Search" style="strokeWidth=1;shadow=0;dashed=0;align=center;html=1;shape=mxgraph.mockup.forms.searchBox;strokeColor=#999999;mainText=;strokeColor2=#008cff;fontColor=#666666;fontSize=17;align=left;spacingLeft=3;whiteSpace=wrap;" vertex="1" parent="R0nz26j8i6R1X5gJDK1r-113">
          <mxGeometry x="702.5" y="283" width="150" height="30" as="geometry" />
        </mxCell>
        <mxCell id="R0nz26j8i6R1X5gJDK1r-158" value="" style="verticalLabelPosition=top;shadow=0;dashed=0;align=center;html=1;verticalAlign=bottom;strokeWidth=1;shape=mxgraph.mockup.misc.pin;fillColor2=#ccccff;fillColor3=#0000ff;strokeColor=#000066;" vertex="1" parent="R0nz26j8i6R1X5gJDK1r-113">
          <mxGeometry x="637" y="413" width="10" height="25" as="geometry" />
        </mxCell>
        <mxCell id="R0nz26j8i6R1X5gJDK1r-159" value="&lt;font style=&quot;font-size: 14px;&quot;&gt;Enter your destination or drop a min on the map!&lt;/font&gt;" style="text;html=1;strokeColor=none;fillColor=none;align=center;verticalAlign=middle;whiteSpace=wrap;rounded=0;" vertex="1" parent="R0nz26j8i6R1X5gJDK1r-113">
          <mxGeometry x="300" y="283" width="383" height="30" as="geometry" />
        </mxCell>
        <mxCell id="R0nz26j8i6R1X5gJDK1r-162" value="New Post" style="html=1;shadow=0;dashed=0;shape=mxgraph.bootstrap.rrect;rSize=5;html=1;strokeColor=#C8C8C8;fillColor=#ffffff;whiteSpace=wrap;verticalAlign=top;align=left;fontSize=18;spacing=15;spacingTop=-5;" vertex="1" parent="R0nz26j8i6R1X5gJDK1r-113">
          <mxGeometry x="485" y="556" width="400" height="370" as="geometry" />
        </mxCell>
        <mxCell id="R0nz26j8i6R1X5gJDK1r-163" value="" style="shape=line;strokeColor=#dddddd;resizeWidth=1;" vertex="1" parent="R0nz26j8i6R1X5gJDK1r-162">
          <mxGeometry width="400" height="10" relative="1" as="geometry">
            <mxPoint y="50" as="offset" />
          </mxGeometry>
        </mxCell>
        <mxCell id="R0nz26j8i6R1X5gJDK1r-164" value="" style="html=1;shadow=0;dashed=0;shape=mxgraph.bootstrap.x;strokeColor=#868686;strokeWidth=2;" vertex="1" parent="R0nz26j8i6R1X5gJDK1r-162">
          <mxGeometry x="1" width="8" height="8" relative="1" as="geometry">
            <mxPoint x="-24" y="20" as="offset" />
          </mxGeometry>
        </mxCell>
        <mxCell id="R0nz26j8i6R1X5gJDK1r-165" value="Title:" style="strokeColor=none;fillColor=none;resizeWidth=1;align=left;verticalAlign=top;spacing=10;fontSize=14;whiteSpace=wrap;html=1;" vertex="1" parent="R0nz26j8i6R1X5gJDK1r-162">
          <mxGeometry width="400" height="40" relative="1" as="geometry">
            <mxPoint y="60" as="offset" />
          </mxGeometry>
        </mxCell>
        <mxCell id="R0nz26j8i6R1X5gJDK1r-166" value="A beautiful day in Auckland" style="html=1;shadow=0;dashed=0;shape=mxgraph.bootstrap.rrect;rSize=5;strokeColor=#CED4DA;fillColor=none;align=left;verticalAlign=middle;spacing=10;fontSize=14;whiteSpace=wrap;html=1;" vertex="1" parent="R0nz26j8i6R1X5gJDK1r-162">
          <mxGeometry width="380" height="40" relative="1" as="geometry">
            <mxPoint x="10" y="100" as="offset" />
          </mxGeometry>
        </mxCell>
        <mxCell id="R0nz26j8i6R1X5gJDK1r-167" value="Diary" style="strokeColor=none;fillColor=none;resizeWidth=1;align=left;verticalAlign=top;spacing=10;fontSize=14;whiteSpace=wrap;html=1;" vertex="1" parent="R0nz26j8i6R1X5gJDK1r-162">
          <mxGeometry width="400" height="40" relative="1" as="geometry">
            <mxPoint y="160" as="offset" />
          </mxGeometry>
        </mxCell>
        <mxCell id="R0nz26j8i6R1X5gJDK1r-168" value="....." style="html=1;shadow=0;dashed=0;shape=mxgraph.bootstrap.rrect;rSize=5;strokeColor=#CED4DA;fillColor=none;align=left;verticalAlign=middle;spacing=10;fontSize=14;whiteSpace=wrap;html=1;" vertex="1" parent="R0nz26j8i6R1X5gJDK1r-162">
          <mxGeometry width="380" height="70" relative="1" as="geometry">
            <mxPoint x="10" y="200" as="offset" />
          </mxGeometry>
        </mxCell>
        <mxCell id="R0nz26j8i6R1X5gJDK1r-169" value="" style="shape=line;strokeColor=#dddddd;resizeWidth=1;" vertex="1" parent="R0nz26j8i6R1X5gJDK1r-162">
          <mxGeometry width="400" height="10" relative="1" as="geometry">
            <mxPoint y="290" as="offset" />
          </mxGeometry>
        </mxCell>
        <mxCell id="R0nz26j8i6R1X5gJDK1r-170" value="Save" style="html=1;shadow=0;dashed=0;shape=mxgraph.bootstrap.rrect;rSize=5;fillColor=#0085FC;strokeColor=none;fontColor=#FFFFFF;fontSize=14;" vertex="1" parent="R0nz26j8i6R1X5gJDK1r-162">
          <mxGeometry x="1" y="1" width="110" height="40" relative="1" as="geometry">
            <mxPoint x="-130" y="-60" as="offset" />
          </mxGeometry>
        </mxCell>
        <mxCell id="R0nz26j8i6R1X5gJDK1r-171" value="Close" style="html=1;shadow=0;dashed=0;shape=mxgraph.bootstrap.rrect;rSize=5;fillColor=#6C757D;strokeColor=none;fontColor=#FFFFFF;fontSize=14;" vertex="1" parent="R0nz26j8i6R1X5gJDK1r-162">
          <mxGeometry x="1" y="1" width="70" height="40" relative="1" as="geometry">
            <mxPoint x="-220" y="-60" as="offset" />
          </mxGeometry>
        </mxCell>
        <mxCell id="R0nz26j8i6R1X5gJDK1r-135" value="" style="strokeWidth=1;shadow=0;dashed=0;align=center;html=1;shape=mxgraph.mockup.containers.browserWindow;rSize=0;strokeColor=#666666;strokeColor2=#008cff;strokeColor3=#c4c4c4;mainText=,;recursiveResize=0;" vertex="1" parent="1">
          <mxGeometry x="-9210" y="-6480" width="1360" height="990" as="geometry" />
        </mxCell>
        <mxCell id="R0nz26j8i6R1X5gJDK1r-136" value="Page 1" style="strokeWidth=1;shadow=0;dashed=0;align=center;html=1;shape=mxgraph.mockup.containers.anchor;fontSize=17;fontColor=#666666;align=left;whiteSpace=wrap;" vertex="1" parent="R0nz26j8i6R1X5gJDK1r-135">
          <mxGeometry x="60" y="12" width="110" height="26" as="geometry" />
        </mxCell>
        <mxCell id="R0nz26j8i6R1X5gJDK1r-137" value="https://www.draw.io" style="strokeWidth=1;shadow=0;dashed=0;align=center;html=1;shape=mxgraph.mockup.containers.anchor;rSize=0;fontSize=17;fontColor=#666666;align=left;" vertex="1" parent="R0nz26j8i6R1X5gJDK1r-135">
          <mxGeometry x="130" y="60" width="250" height="26" as="geometry" />
        </mxCell>
        <mxCell id="R0nz26j8i6R1X5gJDK1r-138" value="" style="rounded=0;whiteSpace=wrap;html=1;" vertex="1" parent="R0nz26j8i6R1X5gJDK1r-135">
          <mxGeometry y="110" width="1360" height="60" as="geometry" />
        </mxCell>
        <mxCell id="R0nz26j8i6R1X5gJDK1r-139" value="Welcome *User*!" style="text;html=1;strokeColor=none;fillColor=none;align=center;verticalAlign=middle;whiteSpace=wrap;rounded=0;" vertex="1" parent="R0nz26j8i6R1X5gJDK1r-135">
          <mxGeometry x="1088" y="125" width="140" height="30" as="geometry" />
        </mxCell>
        <mxCell id="R0nz26j8i6R1X5gJDK1r-140" value="&lt;font style=&quot;font-size: 17px;&quot;&gt;My Travel Diary&lt;/font&gt;" style="text;html=1;strokeColor=none;fillColor=none;align=center;verticalAlign=middle;whiteSpace=wrap;rounded=0;" vertex="1" parent="R0nz26j8i6R1X5gJDK1r-135">
          <mxGeometry x="10" y="125" width="140" height="30" as="geometry" />
        </mxCell>
        <mxCell id="R0nz26j8i6R1X5gJDK1r-141" value="" style="sketch=0;pointerEvents=1;shadow=0;dashed=0;html=1;strokeColor=none;fillColor=#505050;labelPosition=center;verticalLabelPosition=bottom;verticalAlign=top;outlineConnect=0;align=center;shape=mxgraph.office.concepts.home;" vertex="1" parent="R0nz26j8i6R1X5gJDK1r-135">
          <mxGeometry x="1222" y="124" width="30" height="25" as="geometry" />
        </mxCell>
        <mxCell id="R0nz26j8i6R1X5gJDK1r-142" value="" style="shape=image;html=1;verticalAlign=top;verticalLabelPosition=bottom;labelBackgroundColor=#ffffff;imageAspect=0;aspect=fixed;image=https://cdn1.iconfinder.com/data/icons/ui-essential-17/32/UI_Essential_Outline_1_essential-app-ui-question-help-128.png" vertex="1" parent="R0nz26j8i6R1X5gJDK1r-135">
          <mxGeometry x="1270" y="124" width="30" height="30" as="geometry" />
        </mxCell>
        <mxCell id="R0nz26j8i6R1X5gJDK1r-146" value="&lt;font style=&quot;font-size: 26px;&quot;&gt;My Diaries&lt;/font&gt;" style="text;html=1;strokeColor=none;fillColor=none;align=center;verticalAlign=middle;whiteSpace=wrap;rounded=0;" vertex="1" parent="R0nz26j8i6R1X5gJDK1r-135">
          <mxGeometry x="517.5" y="211" width="335" height="30" as="geometry" />
        </mxCell>
        <mxCell id="R0nz26j8i6R1X5gJDK1r-174" value="Auckland" style="swimlane;whiteSpace=wrap;html=1;align=left;" vertex="1" parent="R0nz26j8i6R1X5gJDK1r-135">
          <mxGeometry x="410" y="332" width="580" height="200" as="geometry" />
        </mxCell>
        <mxCell id="R0nz26j8i6R1X5gJDK1r-175" value="&lt;h1&gt;A beautiful day in Auckland&amp;nbsp;&lt;/h1&gt;&lt;p&gt;Lorem ipsum dolor sit amet, consectetur adipisicing elit, sed do eiusmod tempor incididunt ut labore et dolore magna aliqua.&lt;/p&gt;" style="text;html=1;strokeColor=none;fillColor=none;spacing=5;spacingTop=-20;whiteSpace=wrap;overflow=hidden;rounded=0;" vertex="1" parent="R0nz26j8i6R1X5gJDK1r-174">
          <mxGeometry x="10" y="33" width="570" height="120" as="geometry" />
        </mxCell>
        <mxCell id="R0nz26j8i6R1X5gJDK1r-176" value="Edit" style="strokeWidth=1;shadow=0;dashed=0;align=center;html=1;shape=mxgraph.mockup.buttons.button;strokeColor=#666666;fontColor=#ffffff;mainText=;buttonStyle=round;fontSize=17;fontStyle=1;fillColor=#008cff;whiteSpace=wrap;" vertex="1" parent="R0nz26j8i6R1X5gJDK1r-174">
          <mxGeometry x="350" y="150" width="100" height="38" as="geometry" />
        </mxCell>
        <mxCell id="R0nz26j8i6R1X5gJDK1r-177" value="Delete" style="strokeWidth=1;shadow=0;dashed=0;align=center;html=1;shape=mxgraph.mockup.buttons.button;strokeColor=#666666;fontColor=#ffffff;mainText=;buttonStyle=round;fontSize=17;fontStyle=1;fillColor=#CC0000;whiteSpace=wrap;" vertex="1" parent="R0nz26j8i6R1X5gJDK1r-174">
          <mxGeometry x="470" y="150" width="100" height="38" as="geometry" />
        </mxCell>
        <mxCell id="R0nz26j8i6R1X5gJDK1r-178" value="" style="verticalLabelPosition=bottom;shadow=0;dashed=0;align=center;html=1;verticalAlign=top;strokeWidth=1;shape=mxgraph.mockup.navigation.scrollBar;strokeColor=#999999;barPos=20;fillColor2=#99ddff;strokeColor2=none;direction=north;" vertex="1" parent="R0nz26j8i6R1X5gJDK1r-135">
          <mxGeometry x="1088" y="326" width="20" height="454" as="geometry" />
        </mxCell>
        <mxCell id="R0nz26j8i6R1X5gJDK1r-179" value="Edinburgh" style="swimlane;whiteSpace=wrap;html=1;align=left;" vertex="1" parent="R0nz26j8i6R1X5gJDK1r-135">
          <mxGeometry x="410" y="570" width="580" height="200" as="geometry" />
        </mxCell>
        <mxCell id="R0nz26j8i6R1X5gJDK1r-180" value="&lt;h1&gt;Great castle!&amp;nbsp;&lt;/h1&gt;&lt;p&gt;Lorem ipsum dolor sit amet, consectetur adipisicing elit, sed do eiusmod tempor incididunt ut labore et dolore magna aliqua.&lt;/p&gt;" style="text;html=1;strokeColor=none;fillColor=none;spacing=5;spacingTop=-20;whiteSpace=wrap;overflow=hidden;rounded=0;" vertex="1" parent="R0nz26j8i6R1X5gJDK1r-179">
          <mxGeometry x="10" y="33" width="570" height="120" as="geometry" />
        </mxCell>
        <mxCell id="R0nz26j8i6R1X5gJDK1r-181" value="Edit" style="strokeWidth=1;shadow=0;dashed=0;align=center;html=1;shape=mxgraph.mockup.buttons.button;strokeColor=#666666;fontColor=#ffffff;mainText=;buttonStyle=round;fontSize=17;fontStyle=1;fillColor=#008cff;whiteSpace=wrap;" vertex="1" parent="R0nz26j8i6R1X5gJDK1r-179">
          <mxGeometry x="350" y="150" width="100" height="38" as="geometry" />
        </mxCell>
        <mxCell id="R0nz26j8i6R1X5gJDK1r-182" value="Delete" style="strokeWidth=1;shadow=0;dashed=0;align=center;html=1;shape=mxgraph.mockup.buttons.button;strokeColor=#666666;fontColor=#ffffff;mainText=;buttonStyle=round;fontSize=17;fontStyle=1;fillColor=#CC0000;whiteSpace=wrap;" vertex="1" parent="R0nz26j8i6R1X5gJDK1r-179">
          <mxGeometry x="470" y="150" width="100" height="38" as="geometry" />
        </mxCell>
        <mxCell id="R0nz26j8i6R1X5gJDK1r-183" value="" style="strokeWidth=1;shadow=0;dashed=0;align=center;html=1;shape=mxgraph.mockup.containers.browserWindow;rSize=0;strokeColor=#666666;strokeColor2=#008cff;strokeColor3=#c4c4c4;mainText=,;recursiveResize=0;" vertex="1" parent="1">
          <mxGeometry x="-9180" y="-5310" width="1360" height="950" as="geometry" />
        </mxCell>
        <mxCell id="R0nz26j8i6R1X5gJDK1r-184" value="Page 1" style="strokeWidth=1;shadow=0;dashed=0;align=center;html=1;shape=mxgraph.mockup.containers.anchor;fontSize=17;fontColor=#666666;align=left;whiteSpace=wrap;" vertex="1" parent="R0nz26j8i6R1X5gJDK1r-183">
          <mxGeometry x="60" y="12" width="110" height="26" as="geometry" />
        </mxCell>
        <mxCell id="R0nz26j8i6R1X5gJDK1r-185" value="https://www.draw.io" style="strokeWidth=1;shadow=0;dashed=0;align=center;html=1;shape=mxgraph.mockup.containers.anchor;rSize=0;fontSize=17;fontColor=#666666;align=left;" vertex="1" parent="R0nz26j8i6R1X5gJDK1r-183">
          <mxGeometry x="130" y="60" width="250" height="26" as="geometry" />
        </mxCell>
        <mxCell id="R0nz26j8i6R1X5gJDK1r-186" value="" style="rounded=0;whiteSpace=wrap;html=1;" vertex="1" parent="R0nz26j8i6R1X5gJDK1r-183">
          <mxGeometry y="110" width="1360" height="60" as="geometry" />
        </mxCell>
        <mxCell id="R0nz26j8i6R1X5gJDK1r-187" value="Welcome *User*!" style="text;html=1;strokeColor=none;fillColor=none;align=center;verticalAlign=middle;whiteSpace=wrap;rounded=0;" vertex="1" parent="R0nz26j8i6R1X5gJDK1r-183">
          <mxGeometry x="1088" y="125" width="140" height="30" as="geometry" />
        </mxCell>
        <mxCell id="R0nz26j8i6R1X5gJDK1r-188" value="&lt;font style=&quot;font-size: 17px;&quot;&gt;My Travel Diary&lt;/font&gt;" style="text;html=1;strokeColor=none;fillColor=none;align=center;verticalAlign=middle;whiteSpace=wrap;rounded=0;" vertex="1" parent="R0nz26j8i6R1X5gJDK1r-183">
          <mxGeometry x="10" y="125" width="140" height="30" as="geometry" />
        </mxCell>
        <mxCell id="R0nz26j8i6R1X5gJDK1r-189" value="" style="sketch=0;pointerEvents=1;shadow=0;dashed=0;html=1;strokeColor=none;fillColor=#505050;labelPosition=center;verticalLabelPosition=bottom;verticalAlign=top;outlineConnect=0;align=center;shape=mxgraph.office.concepts.home;" vertex="1" parent="R0nz26j8i6R1X5gJDK1r-183">
          <mxGeometry x="1222" y="124" width="30" height="25" as="geometry" />
        </mxCell>
        <mxCell id="R0nz26j8i6R1X5gJDK1r-190" value="" style="shape=image;html=1;verticalAlign=top;verticalLabelPosition=bottom;labelBackgroundColor=#ffffff;imageAspect=0;aspect=fixed;image=https://cdn1.iconfinder.com/data/icons/ui-essential-17/32/UI_Essential_Outline_1_essential-app-ui-question-help-128.png" vertex="1" parent="R0nz26j8i6R1X5gJDK1r-183">
          <mxGeometry x="1270" y="124" width="30" height="30" as="geometry" />
        </mxCell>
        <mxCell id="R0nz26j8i6R1X5gJDK1r-191" value="&lt;font style=&quot;font-size: 26px;&quot;&gt;My Diaries&lt;/font&gt;" style="text;html=1;strokeColor=none;fillColor=none;align=center;verticalAlign=middle;whiteSpace=wrap;rounded=0;" vertex="1" parent="R0nz26j8i6R1X5gJDK1r-183">
          <mxGeometry x="517.5" y="211" width="335" height="30" as="geometry" />
        </mxCell>
        <mxCell id="R0nz26j8i6R1X5gJDK1r-192" value="Auckland" style="swimlane;whiteSpace=wrap;html=1;align=left;" vertex="1" parent="R0nz26j8i6R1X5gJDK1r-183">
          <mxGeometry x="410" y="332" width="580" height="200" as="geometry" />
        </mxCell>
        <mxCell id="R0nz26j8i6R1X5gJDK1r-193" value="&lt;h1&gt;A beautiful day in Auckland&amp;nbsp;&lt;/h1&gt;&lt;p&gt;Lorem ipsum dolor sit amet, consectetur adipisicing elit, sed do eiusmod tempor incididunt ut labore et dolore magna aliqua.&lt;/p&gt;" style="text;html=1;strokeColor=none;fillColor=none;spacing=5;spacingTop=-20;whiteSpace=wrap;overflow=hidden;rounded=0;" vertex="1" parent="R0nz26j8i6R1X5gJDK1r-192">
          <mxGeometry x="10" y="33" width="570" height="120" as="geometry" />
        </mxCell>
        <mxCell id="R0nz26j8i6R1X5gJDK1r-194" value="Edit" style="strokeWidth=1;shadow=0;dashed=0;align=center;html=1;shape=mxgraph.mockup.buttons.button;strokeColor=#666666;fontColor=#ffffff;mainText=;buttonStyle=round;fontSize=17;fontStyle=1;fillColor=#008cff;whiteSpace=wrap;" vertex="1" parent="R0nz26j8i6R1X5gJDK1r-192">
          <mxGeometry x="350" y="150" width="100" height="38" as="geometry" />
        </mxCell>
        <mxCell id="R0nz26j8i6R1X5gJDK1r-195" value="Delete" style="strokeWidth=1;shadow=0;dashed=0;align=center;html=1;shape=mxgraph.mockup.buttons.button;strokeColor=#666666;fontColor=#ffffff;mainText=;buttonStyle=round;fontSize=17;fontStyle=1;fillColor=#CC0000;whiteSpace=wrap;" vertex="1" parent="R0nz26j8i6R1X5gJDK1r-192">
          <mxGeometry x="470" y="150" width="100" height="38" as="geometry" />
        </mxCell>
        <mxCell id="R0nz26j8i6R1X5gJDK1r-224" value="Edit Post" style="html=1;shadow=0;dashed=0;shape=mxgraph.bootstrap.rrect;rSize=5;html=1;strokeColor=#C8C8C8;fillColor=#ffffff;whiteSpace=wrap;verticalAlign=top;align=left;fontSize=18;spacing=15;spacingTop=-5;" vertex="1" parent="R0nz26j8i6R1X5gJDK1r-183">
          <mxGeometry x="414" y="563" width="580" height="370" as="geometry" />
        </mxCell>
        <mxCell id="R0nz26j8i6R1X5gJDK1r-225" value="" style="shape=line;strokeColor=#dddddd;resizeWidth=1;" vertex="1" parent="R0nz26j8i6R1X5gJDK1r-224">
          <mxGeometry width="580" height="10" relative="1" as="geometry">
            <mxPoint y="50" as="offset" />
          </mxGeometry>
        </mxCell>
        <mxCell id="R0nz26j8i6R1X5gJDK1r-226" value="" style="html=1;shadow=0;dashed=0;shape=mxgraph.bootstrap.x;strokeColor=#868686;strokeWidth=2;" vertex="1" parent="R0nz26j8i6R1X5gJDK1r-224">
          <mxGeometry x="1" width="8" height="8" relative="1" as="geometry">
            <mxPoint x="-24" y="20" as="offset" />
          </mxGeometry>
        </mxCell>
        <mxCell id="R0nz26j8i6R1X5gJDK1r-227" value="Title:" style="strokeColor=none;fillColor=none;resizeWidth=1;align=left;verticalAlign=top;spacing=10;fontSize=14;whiteSpace=wrap;html=1;" vertex="1" parent="R0nz26j8i6R1X5gJDK1r-224">
          <mxGeometry width="580" height="40" relative="1" as="geometry">
            <mxPoint y="60" as="offset" />
          </mxGeometry>
        </mxCell>
        <mxCell id="R0nz26j8i6R1X5gJDK1r-228" value="A beautiful day in Auckland" style="html=1;shadow=0;dashed=0;shape=mxgraph.bootstrap.rrect;rSize=5;strokeColor=#CED4DA;fillColor=none;align=left;verticalAlign=middle;spacing=10;fontSize=14;whiteSpace=wrap;html=1;" vertex="1" parent="R0nz26j8i6R1X5gJDK1r-224">
          <mxGeometry width="380" height="40" relative="1" as="geometry">
            <mxPoint x="10" y="100" as="offset" />
          </mxGeometry>
        </mxCell>
        <mxCell id="R0nz26j8i6R1X5gJDK1r-229" value="Diary" style="strokeColor=none;fillColor=none;resizeWidth=1;align=left;verticalAlign=top;spacing=10;fontSize=14;whiteSpace=wrap;html=1;" vertex="1" parent="R0nz26j8i6R1X5gJDK1r-224">
          <mxGeometry width="580" height="40" relative="1" as="geometry">
            <mxPoint y="160" as="offset" />
          </mxGeometry>
        </mxCell>
        <mxCell id="R0nz26j8i6R1X5gJDK1r-230" value="....." style="html=1;shadow=0;dashed=0;shape=mxgraph.bootstrap.rrect;rSize=5;strokeColor=#CED4DA;fillColor=none;align=left;verticalAlign=middle;spacing=10;fontSize=14;whiteSpace=wrap;html=1;" vertex="1" parent="R0nz26j8i6R1X5gJDK1r-224">
          <mxGeometry width="380" height="70" relative="1" as="geometry">
            <mxPoint x="10" y="200" as="offset" />
          </mxGeometry>
        </mxCell>
        <mxCell id="R0nz26j8i6R1X5gJDK1r-231" value="" style="shape=line;strokeColor=#dddddd;resizeWidth=1;" vertex="1" parent="R0nz26j8i6R1X5gJDK1r-224">
          <mxGeometry width="580" height="10" relative="1" as="geometry">
            <mxPoint y="290" as="offset" />
          </mxGeometry>
        </mxCell>
        <mxCell id="R0nz26j8i6R1X5gJDK1r-232" value="Save" style="html=1;shadow=0;dashed=0;shape=mxgraph.bootstrap.rrect;rSize=5;fillColor=#0085FC;strokeColor=none;fontColor=#FFFFFF;fontSize=14;" vertex="1" parent="R0nz26j8i6R1X5gJDK1r-224">
          <mxGeometry x="1" y="1" width="110" height="40" relative="1" as="geometry">
            <mxPoint x="-130" y="-60" as="offset" />
          </mxGeometry>
        </mxCell>
        <mxCell id="R0nz26j8i6R1X5gJDK1r-233" value="Close" style="html=1;shadow=0;dashed=0;shape=mxgraph.bootstrap.rrect;rSize=5;fillColor=#6C757D;strokeColor=none;fontColor=#FFFFFF;fontSize=14;" vertex="1" parent="R0nz26j8i6R1X5gJDK1r-224">
          <mxGeometry x="1" y="1" width="70" height="40" relative="1" as="geometry">
            <mxPoint x="-220" y="-60" as="offset" />
          </mxGeometry>
        </mxCell>
        <mxCell id="R0nz26j8i6R1X5gJDK1r-201" value="" style="strokeWidth=1;shadow=0;dashed=0;align=center;html=1;shape=mxgraph.mockup.containers.browserWindow;rSize=0;strokeColor=#666666;strokeColor2=#008cff;strokeColor3=#c4c4c4;mainText=,;recursiveResize=0;" vertex="1" parent="1">
          <mxGeometry x="-10695" y="-5330" width="1360" height="850" as="geometry" />
        </mxCell>
        <mxCell id="R0nz26j8i6R1X5gJDK1r-202" value="Page 1" style="strokeWidth=1;shadow=0;dashed=0;align=center;html=1;shape=mxgraph.mockup.containers.anchor;fontSize=17;fontColor=#666666;align=left;whiteSpace=wrap;" vertex="1" parent="R0nz26j8i6R1X5gJDK1r-201">
          <mxGeometry x="60" y="12" width="110" height="26" as="geometry" />
        </mxCell>
        <mxCell id="R0nz26j8i6R1X5gJDK1r-203" value="https://www.draw.io" style="strokeWidth=1;shadow=0;dashed=0;align=center;html=1;shape=mxgraph.mockup.containers.anchor;rSize=0;fontSize=17;fontColor=#666666;align=left;" vertex="1" parent="R0nz26j8i6R1X5gJDK1r-201">
          <mxGeometry x="130" y="60" width="250" height="26" as="geometry" />
        </mxCell>
        <mxCell id="R0nz26j8i6R1X5gJDK1r-204" value="" style="rounded=0;whiteSpace=wrap;html=1;" vertex="1" parent="R0nz26j8i6R1X5gJDK1r-201">
          <mxGeometry y="110" width="1360" height="60" as="geometry" />
        </mxCell>
        <mxCell id="R0nz26j8i6R1X5gJDK1r-205" value="Welcome *User*!" style="text;html=1;strokeColor=none;fillColor=none;align=center;verticalAlign=middle;whiteSpace=wrap;rounded=0;" vertex="1" parent="R0nz26j8i6R1X5gJDK1r-201">
          <mxGeometry x="1088" y="125" width="140" height="30" as="geometry" />
        </mxCell>
        <mxCell id="R0nz26j8i6R1X5gJDK1r-206" value="&lt;font style=&quot;font-size: 17px;&quot;&gt;My Travel Diary&lt;/font&gt;" style="text;html=1;strokeColor=none;fillColor=none;align=center;verticalAlign=middle;whiteSpace=wrap;rounded=0;" vertex="1" parent="R0nz26j8i6R1X5gJDK1r-201">
          <mxGeometry x="10" y="125" width="140" height="30" as="geometry" />
        </mxCell>
        <mxCell id="R0nz26j8i6R1X5gJDK1r-207" value="" style="sketch=0;pointerEvents=1;shadow=0;dashed=0;html=1;strokeColor=none;fillColor=#505050;labelPosition=center;verticalLabelPosition=bottom;verticalAlign=top;outlineConnect=0;align=center;shape=mxgraph.office.concepts.home;" vertex="1" parent="R0nz26j8i6R1X5gJDK1r-201">
          <mxGeometry x="1222" y="124" width="30" height="25" as="geometry" />
        </mxCell>
        <mxCell id="R0nz26j8i6R1X5gJDK1r-208" value="" style="shape=image;html=1;verticalAlign=top;verticalLabelPosition=bottom;labelBackgroundColor=#ffffff;imageAspect=0;aspect=fixed;image=https://cdn1.iconfinder.com/data/icons/ui-essential-17/32/UI_Essential_Outline_1_essential-app-ui-question-help-128.png" vertex="1" parent="R0nz26j8i6R1X5gJDK1r-201">
          <mxGeometry x="1270" y="124" width="30" height="30" as="geometry" />
        </mxCell>
        <mxCell id="R0nz26j8i6R1X5gJDK1r-209" value="&lt;font style=&quot;font-size: 26px;&quot;&gt;My Diaries&lt;/font&gt;" style="text;html=1;strokeColor=none;fillColor=none;align=center;verticalAlign=middle;whiteSpace=wrap;rounded=0;" vertex="1" parent="R0nz26j8i6R1X5gJDK1r-201">
          <mxGeometry x="517.5" y="211" width="335" height="30" as="geometry" />
        </mxCell>
        <mxCell id="R0nz26j8i6R1X5gJDK1r-210" value="Auckland" style="swimlane;whiteSpace=wrap;html=1;align=left;" vertex="1" parent="R0nz26j8i6R1X5gJDK1r-201">
          <mxGeometry x="410" y="332" width="716" height="228" as="geometry" />
        </mxCell>
        <mxCell id="R0nz26j8i6R1X5gJDK1r-211" value="&lt;h1&gt;A beautiful day in Auckland&amp;nbsp;&lt;/h1&gt;&lt;p&gt;Lorem ipsum dolor sit amet, consectetur adipisicing elit, sed do eiusmod tempor incididunt ut labore et dolore magna aliqua.&lt;/p&gt;" style="text;html=1;strokeColor=none;fillColor=none;spacing=5;spacingTop=-20;whiteSpace=wrap;overflow=hidden;rounded=0;" vertex="1" parent="R0nz26j8i6R1X5gJDK1r-210">
          <mxGeometry x="10" y="33" width="570" height="120" as="geometry" />
        </mxCell>
        <mxCell id="R0nz26j8i6R1X5gJDK1r-212" value="Edit" style="strokeWidth=1;shadow=0;dashed=0;align=center;html=1;shape=mxgraph.mockup.buttons.button;strokeColor=#666666;fontColor=#ffffff;mainText=;buttonStyle=round;fontSize=17;fontStyle=1;fillColor=#008cff;whiteSpace=wrap;" vertex="1" parent="R0nz26j8i6R1X5gJDK1r-210">
          <mxGeometry x="350" y="150" width="100" height="38" as="geometry" />
        </mxCell>
        <mxCell id="R0nz26j8i6R1X5gJDK1r-213" value="Delete" style="strokeWidth=1;shadow=0;dashed=0;align=center;html=1;shape=mxgraph.mockup.buttons.button;strokeColor=#666666;fontColor=#ffffff;mainText=;buttonStyle=round;fontSize=17;fontStyle=1;fillColor=#CC0000;whiteSpace=wrap;" vertex="1" parent="R0nz26j8i6R1X5gJDK1r-210">
          <mxGeometry x="470" y="150" width="100" height="38" as="geometry" />
        </mxCell>
        <mxCell id="R0nz26j8i6R1X5gJDK1r-214" value="" style="verticalLabelPosition=bottom;shadow=0;dashed=0;align=center;html=1;verticalAlign=top;strokeWidth=1;shape=mxgraph.mockup.navigation.scrollBar;strokeColor=#999999;barPos=20;fillColor2=#99ddff;strokeColor2=none;direction=north;" vertex="1" parent="R0nz26j8i6R1X5gJDK1r-201">
          <mxGeometry x="1088" y="326" width="20" height="454" as="geometry" />
        </mxCell>
        <mxCell id="R0nz26j8i6R1X5gJDK1r-215" value="Edinburgh" style="swimlane;whiteSpace=wrap;html=1;align=left;" vertex="1" parent="R0nz26j8i6R1X5gJDK1r-201">
          <mxGeometry x="410" y="570" width="580" height="200" as="geometry" />
        </mxCell>
        <mxCell id="R0nz26j8i6R1X5gJDK1r-216" value="&lt;h1&gt;Great castle!&amp;nbsp;&lt;/h1&gt;&lt;p&gt;Lorem ipsum dolor sit amet, consectetur adipisicing elit, sed do eiusmod tempor incididunt ut labore et dolore magna aliqua.&lt;/p&gt;" style="text;html=1;strokeColor=none;fillColor=none;spacing=5;spacingTop=-20;whiteSpace=wrap;overflow=hidden;rounded=0;" vertex="1" parent="R0nz26j8i6R1X5gJDK1r-215">
          <mxGeometry x="10" y="33" width="570" height="120" as="geometry" />
        </mxCell>
        <mxCell id="R0nz26j8i6R1X5gJDK1r-217" value="Edit" style="strokeWidth=1;shadow=0;dashed=0;align=center;html=1;shape=mxgraph.mockup.buttons.button;strokeColor=#666666;fontColor=#ffffff;mainText=;buttonStyle=round;fontSize=17;fontStyle=1;fillColor=#008cff;whiteSpace=wrap;" vertex="1" parent="R0nz26j8i6R1X5gJDK1r-215">
          <mxGeometry x="350" y="150" width="100" height="38" as="geometry" />
        </mxCell>
        <mxCell id="R0nz26j8i6R1X5gJDK1r-218" value="Delete" style="strokeWidth=1;shadow=0;dashed=0;align=center;html=1;shape=mxgraph.mockup.buttons.button;strokeColor=#666666;fontColor=#ffffff;mainText=;buttonStyle=round;fontSize=17;fontStyle=1;fillColor=#CC0000;whiteSpace=wrap;" vertex="1" parent="R0nz26j8i6R1X5gJDK1r-215">
          <mxGeometry x="470" y="150" width="100" height="38" as="geometry" />
        </mxCell>
        <mxCell id="R0nz26j8i6R1X5gJDK1r-219" value="Are you sure you want to delete this post?" style="strokeWidth=1;shadow=0;dashed=0;align=center;html=1;shape=mxgraph.mockup.containers.rrect;rSize=0;strokeColor=#666666;fontColor=#666666;fontSize=17;verticalAlign=top;whiteSpace=wrap;fillColor=#ffffff;spacingTop=32;" vertex="1" parent="R0nz26j8i6R1X5gJDK1r-201">
          <mxGeometry x="615" y="260" width="250" height="140" as="geometry" />
        </mxCell>
        <mxCell id="R0nz26j8i6R1X5gJDK1r-220" value="Alert!" style="strokeWidth=1;shadow=0;dashed=0;align=center;html=1;shape=mxgraph.mockup.containers.rrect;rSize=0;fontSize=17;fontColor=#666666;strokeColor=#666666;align=left;spacingLeft=8;fillColor=none;resizeWidth=1;whiteSpace=wrap;" vertex="1" parent="R0nz26j8i6R1X5gJDK1r-219">
          <mxGeometry width="250" height="30" relative="1" as="geometry" />
        </mxCell>
        <mxCell id="R0nz26j8i6R1X5gJDK1r-221" value="" style="shape=ellipse;strokeColor=#008cff;resizable=0;fillColor=none;html=1;" vertex="1" parent="R0nz26j8i6R1X5gJDK1r-220">
          <mxGeometry x="1" y="0.5" width="20" height="20" relative="1" as="geometry">
            <mxPoint x="-25" y="-10" as="offset" />
          </mxGeometry>
        </mxCell>
        <mxCell id="R0nz26j8i6R1X5gJDK1r-222" value="Cancel" style="strokeWidth=1;shadow=0;dashed=0;align=center;html=1;shape=mxgraph.mockup.containers.rrect;rSize=0;fontSize=16;fontColor=#666666;strokeColor=#c4c4c4;whiteSpace=wrap;fillColor=none;" vertex="1" parent="R0nz26j8i6R1X5gJDK1r-219">
          <mxGeometry x="0.25" y="1" width="90" height="25" relative="1" as="geometry">
            <mxPoint x="-45" y="-33" as="offset" />
          </mxGeometry>
        </mxCell>
        <mxCell id="R0nz26j8i6R1X5gJDK1r-223" value="OK" style="strokeWidth=1;shadow=0;dashed=0;align=center;html=1;shape=mxgraph.mockup.containers.rrect;rSize=0;fontSize=16;fontColor=#666666;strokeColor=#c4c4c4;whiteSpace=wrap;fillColor=none;" vertex="1" parent="R0nz26j8i6R1X5gJDK1r-219">
          <mxGeometry x="0.75" y="1" width="90" height="25" relative="1" as="geometry">
            <mxPoint x="-45" y="-33" as="offset" />
          </mxGeometry>
        </mxCell>
      </root>
    </mxGraphModel>
  </diagram>
</mxfile>
